P3
9 8
255
255 255 255 255 255 255 255 255 255 255 255 255 255 255 255 254 254 254 255 255 255 255 255 255 255 255 255 
255 255 255 255 255 255 255 255 255 156 156 156 54 54 54 48 48 48 184 184 184 255 255 255 255 255 255 
255 255 255 255 255 255 250 250 250 45 45 45 45 45 45 44 44 44 42 42 42 252 252 252 255 255 255 
255 255 255 254 254 254 49 49 49 44 44 44 42 42 42 44 44 44 41 41 41 44 44 44 253 253 253 
255 255 255 254 254 254 43 43 43 35 35 35 42 42 42 42 42 42 112 112 112 46 46 46 254 254 254 
255 255 255 254 254 254 44 44 44 45 45 45 44 44 44 46 46 46 42 42 42 45 45 45 255 255 255 
255 255 255 255 255 255 127 127 127 46 46 46 42 42 42 43 43 43 43 43 43 41 41 41 253 253 253 
255 255 255 255 255 255 255 255 255 160 160 160 47 47 47 45 45 45 149 149 149 255 255 255 255 255 255 
